<?xml version="1.0" standalone="no"?>
<!DOCTYPE svg PUBLIC "-//W3C//DTD SVG 20010904//EN"
 "http://www.w3.org/TR/2001/REC-SVG-20010904/DTD/svg10.dtd">
<svg version="1.0" xmlns="http://www.w3.org/2000/svg"
 width="2682.000000pt" height="1891.000000pt" viewBox="0 0 2682.000000 1891.000000"
 preserveAspectRatio="xMidYMid meet">

<g transform="translate(0.000000,1891.000000) scale(0.100000,-0.100000)"
fill="#295F98" stroke="none">
<path d="M10261 17705 c-151 -33 -293 -130 -379 -258 -93 -140 -106 -215 -159
-922 -22 -291 -25 -1244 -5 -1515 32 -440 40 -507 74 -593 27 -70 73 -150 120
-208 30 -36 130 -108 189 -136 125 -59 118 -58 589 -58 503 0 502 0 585 80 73
70 97 127 105 250 8 109 12 131 42 220 38 117 117 227 223 311 38 31 81 61 95
66 65 26 223 60 300 65 258 16 505 -133 619 -372 47 -96 57 -138 70 -278 16
-170 79 -270 209 -334 l57 -28 710 0 710 0 57 27 c129 60 192 158 209 321 5
50 14 117 20 147 37 185 179 367 351 449 233 111 462 92 688 -58 34 -23 65
-41 70 -41 31 0 190 -253 190 -304 0 -10 4 -25 9 -35 5 -9 16 -78 24 -153 9
-81 22 -149 32 -168 21 -40 95 -115 154 -155 l44 -30 417 -3 c470 -3 510 1
638 64 124 61 254 202 304 329 31 79 35 111 73 545 34 401 39 539 39 1050 0
512 -5 640 -40 1060 -18 214 -26 254 -65 333 -84 171 -241 293 -425 332 -102
22 -838 22 -911 0 -137 -41 -217 -152 -233 -323 -5 -51 -13 -99 -18 -105 -5
-7 -14 -38 -21 -70 -7 -32 -31 -95 -53 -140 -56 -111 -179 -236 -288 -289
-246 -120 -505 -94 -710 71 -84 67 -127 121 -177 218 -47 90 -72 178 -78 278
-12 180 -66 278 -189 343 l-51 27 -740 0 -740 0 -46 -23 c-130 -64 -175 -140
-195 -329 -7 -71 -22 -154 -33 -186 -80 -231 -250 -395 -468 -451 -78 -20
-248 -21 -332 -1 -155 37 -310 152 -414 308 -66 98 -85 156 -98 302 -5 61 -16
127 -23 149 -24 70 -85 141 -160 187 l-71 44 -415 2 c-326 1 -429 -1 -479 -12z"/>
<path d="M5825 13939 c-145 -12 -332 -30 -395 -39 -189 -26 -229 -32 -260 -40
-19 -5 -66 -14 -105 -20 -38 -7 -95 -18 -125 -25 -30 -8 -77 -19 -105 -25 -77
-19 -251 -65 -295 -80 -14 -4 -65 -20 -115 -35 -49 -15 -103 -33 -120 -40 -16
-7 -52 -20 -80 -30 -311 -102 -748 -318 -1112 -547 -161 -101 -531 -371 -605
-441 -7 -7 -42 -37 -78 -67 -167 -142 -439 -418 -611 -620 -236 -277 -439
-569 -630 -905 -89 -158 -240 -475 -305 -642 -114 -295 -145 -390 -229 -703
-42 -158 -105 -467 -120 -585 -4 -27 -13 -97 -21 -155 -20 -149 -44 -529 -44
-700 1 -171 24 -542 44 -690 8 -58 17 -127 21 -155 10 -79 55 -325 70 -380 7
-27 18 -75 25 -105 16 -72 94 -350 125 -442 148 -448 342 -862 589 -1257 108
-172 142 -221 298 -431 239 -321 628 -719 967 -990 25 -19 49 -40 55 -45 21
-21 472 -341 526 -374 417 -255 930 -482 1390 -615 342 -99 748 -175 1095
-206 314 -28 808 -22 1125 15 197 23 462 65 572 90 708 167 1217 371 1788 718
134 81 231 146 245 163 6 6 45 38 89 70 43 33 90 68 105 78 94 71 242 193 341
282 25 22 63 56 85 75 75 65 1783 1777 1825 1830 39 49 110 185 110 211 0 18
-33 82 -69 133 -88 126 -225 227 -366 269 -33 10 -73 22 -89 27 -47 15 -232
11 -294 -7 -139 -38 -215 -75 -302 -147 -19 -16 -460 -453 -980 -971 -850
-848 -1066 -1054 -1225 -1171 -22 -17 -42 -33 -45 -36 -21 -25 -447 -309 -463
-309 -2 0 -44 -23 -92 -50 -130 -75 -452 -230 -478 -230 -7 0 -17 -4 -22 -8
-6 -5 -32 -17 -60 -26 -27 -10 -63 -24 -80 -31 -16 -7 -48 -18 -70 -25 -22 -7
-49 -16 -60 -21 -31 -12 -87 -30 -120 -39 -16 -5 -55 -16 -85 -25 -30 -9 -71
-20 -90 -25 -19 -5 -62 -16 -95 -25 -33 -9 -82 -20 -110 -25 -27 -5 -84 -16
-125 -25 -99 -20 -158 -29 -385 -55 -170 -19 -229 -21 -560 -17 -279 3 -398 8
-485 21 -63 10 -142 21 -175 26 -33 5 -85 15 -115 24 -30 8 -91 24 -135 35
-232 61 -296 79 -470 136 -553 180 -1076 471 -1535 853 -153 128 -442 418
-566 567 -618 747 -981 1619 -1070 2572 -22 237 -22 623 0 848 78 801 333
1513 779 2180 107 160 295 398 427 540 31 33 70 80 87 105 55 81 288 294 493
451 162 125 406 288 505 338 11 6 52 28 90 50 106 61 395 201 413 201 5 0 32
11 60 25 29 14 56 25 60 25 9 0 60 22 94 41 10 5 26 9 36 9 10 0 22 4 28 8 5
4 36 16 69 26 33 10 69 22 80 26 57 20 125 40 139 40 9 0 24 4 34 9 9 5 49 17
87 26 39 9 86 20 105 25 82 20 149 33 205 41 33 4 103 15 155 24 119 20 277
35 443 42 144 5 152 1 124 -65 -9 -20 -62 -158 -118 -307 -56 -148 -139 -369
-185 -490 -45 -121 -135 -362 -199 -535 -64 -173 -120 -324 -125 -335 -5 -11
-39 -103 -75 -205 -37 -102 -82 -225 -100 -275 -19 -49 -54 -147 -79 -217 -82
-228 -137 -382 -162 -450 -13 -38 -35 -99 -49 -138 -14 -38 -36 -100 -49 -137
-27 -75 -72 -203 -136 -388 -23 -66 -51 -145 -62 -175 -11 -30 -24 -66 -28
-80 -5 -14 -61 -178 -125 -365 -234 -685 -500 -1492 -541 -1642 -28 -101 -31
-103 -194 -103 l-140 0 0 -52 c0 -63 23 -159 61 -251 88 -218 302 -450 564
-614 96 -60 242 -138 306 -163 26 -10 66 -27 90 -38 24 -11 57 -24 73 -31 56
-23 262 -88 331 -105 39 -9 86 -21 105 -26 35 -8 160 -33 255 -50 454 -81
1071 -71 1525 25 36 7 92 19 125 25 33 7 80 18 104 26 25 8 53 14 63 14 10 0
26 4 36 9 9 5 44 17 77 27 33 10 64 22 70 26 5 4 17 8 27 8 9 0 32 6 50 14 44
19 125 54 168 73 73 32 157 74 205 103 28 16 57 33 65 37 88 41 224 147 356
278 184 183 272 342 310 563 8 45 12 87 9 92 -4 6 -68 10 -150 10 -139 0 -145
1 -159 23 -8 12 -18 36 -21 52 -19 82 -347 1079 -535 1625 -50 146 -102 297
-115 335 -12 39 -46 135 -75 215 -28 80 -60 170 -70 200 -32 98 -158 452 -286
805 -25 72 -55 155 -66 185 -10 30 -27 78 -38 105 -21 56 -64 175 -175 480
-42 116 -103 282 -136 370 -33 88 -83 221 -110 295 -28 74 -56 151 -64 170 -7
19 -70 186 -140 370 -70 184 -142 376 -162 425 -19 50 -48 125 -63 167 -42
115 -46 112 192 117 178 3 318 -5 538 -31 226 -26 225 -26 435 -68 127 -26
346 -91 423 -126 29 -13 64 -24 77 -24 14 0 67 -20 117 -44 51 -24 138 -63
193 -86 171 -72 493 -238 600 -310 22 -15 70 -42 106 -60 53 -25 318 -213 339
-239 3 -4 18 -17 34 -29 60 -46 154 -130 250 -222 215 -207 3807 -3804 3814
-3819 8 -17 -1 -613 -18 -1206 -6 -203 -12 -476 -14 -605 -3 -129 -9 -453 -15
-720 -6 -267 -15 -719 -20 -1005 -6 -286 -15 -628 -21 -760 -5 -132 -11 -413
-12 -625 -2 -424 -3 -417 65 -584 29 -71 37 -83 82 -111 67 -42 158 -80 231
-96 88 -19 272 -14 367 10 274 71 491 266 586 527 54 148 56 178 43 765 -49
2175 -60 2536 -88 3036 -5 101 -4 136 6 148 7 8 16 15 20 15 7 0 289 -279
1775 -1758 281 -280 532 -527 558 -550 49 -42 90 -76 207 -174 90 -76 280
-218 308 -231 12 -6 22 -14 22 -19 0 -4 4 -8 10 -8 5 0 41 -23 80 -50 39 -28
72 -50 75 -50 2 0 24 -13 47 -29 333 -223 625 -373 1023 -524 309 -117 674
-218 1005 -276 515 -90 1016 -110 1565 -61 550 50 1216 223 1735 452 291 128
648 325 910 501 95 64 339 249 450 341 671 558 1240 1312 1575 2091 26 61 55
128 65 150 66 150 178 488 236 712 174 681 220 1313 148 2036 -96 966 -451
1914 -1014 2706 -208 292 -448 572 -662 772 -318 297 -526 464 -859 687 -129
86 -608 341 -794 422 -11 5 -46 20 -78 34 -32 14 -60 26 -63 26 -3 0 -20 6
-37 14 -18 8 -54 22 -82 32 -27 9 -54 20 -60 24 -5 4 -30 12 -55 19 -25 7 -58
19 -75 26 -48 20 -172 60 -280 89 -55 15 -122 34 -150 41 -27 8 -70 19 -95 24
-25 5 -74 17 -110 25 -36 8 -92 20 -125 26 -33 6 -80 15 -105 20 -47 10 -152
25 -282 40 -43 5 -86 11 -95 14 -29 9 -514 36 -643 36 -163 0 -356 -17 -475
-42 -300 -62 -330 -69 -545 -133 -30 -8 -68 -20 -85 -24 -32 -9 -119 -39 -225
-77 -36 -13 -72 -24 -81 -24 -8 0 -19 -4 -24 -8 -6 -5 -32 -17 -60 -26 -27
-10 -74 -29 -103 -42 -29 -13 -56 -24 -60 -24 -5 0 -26 -8 -48 -19 -21 -10
-61 -28 -89 -41 -27 -12 -66 -28 -85 -37 -66 -29 -335 -163 -390 -194 -30 -17
-73 -41 -95 -54 -22 -12 -70 -41 -108 -63 -37 -23 -71 -42 -76 -42 -5 0 -11
-4 -13 -8 -2 -6 -101 -72 -206 -137 -9 -5 -21 -13 -26 -18 -6 -4 -61 -43 -121
-86 -61 -43 -120 -85 -130 -94 -11 -8 -45 -35 -75 -59 -143 -114 -242 -196
-320 -266 -47 -42 -507 -497 -1023 -1011 -646 -644 -952 -956 -982 -1002 -106
-158 -148 -338 -120 -514 7 -49 18 -104 23 -121 11 -36 58 -132 75 -154 14
-18 104 -61 162 -77 117 -33 154 -36 243 -24 158 23 290 82 391 176 36 33 446
439 911 901 854 851 983 974 1145 1094 33 25 69 53 79 63 11 9 23 17 27 17 4
0 14 6 21 13 24 22 214 147 226 147 5 0 12 4 14 9 3 7 35 26 143 85 11 6 22
13 25 17 6 6 249 126 330 162 30 14 81 37 113 51 32 14 63 26 70 26 7 0 17 4
23 9 9 8 193 76 249 91 17 5 55 16 85 25 30 9 71 20 90 25 19 5 64 16 100 25
36 10 83 21 105 26 119 24 217 42 275 49 36 5 124 16 195 25 262 34 866 30
963 -6 37 -14 32 -38 -43 -214 -7 -16 -20 -50 -28 -75 -14 -41 -208 -555 -242
-640 -8 -19 -37 -98 -66 -175 -28 -77 -84 -228 -124 -335 -105 -278 -186 -500
-237 -645 -11 -33 -24 -64 -29 -69 -5 -6 -9 -17 -9 -25 0 -8 -23 -75 -50 -150
-63 -168 -86 -231 -175 -481 -14 -38 -36 -101 -50 -140 -14 -38 -36 -101 -50
-140 -14 -39 -36 -100 -49 -138 -42 -117 -66 -184 -101 -287 -18 -55 -52 -152
-75 -215 -23 -63 -57 -160 -76 -215 -18 -55 -85 -253 -149 -440 -161 -475
-395 -1184 -449 -1360 -15 -49 -35 -106 -44 -125 l-17 -35 -145 -5 -145 -5 2
-55 c9 -203 122 -422 323 -620 80 -79 267 -223 345 -266 19 -10 125 -69 155
-86 38 -21 192 -87 260 -112 41 -15 83 -31 92 -37 10 -5 24 -9 33 -9 8 0 29
-6 47 -14 18 -8 53 -20 78 -26 25 -7 65 -18 90 -25 25 -7 72 -18 105 -25 33
-6 89 -18 125 -25 222 -47 404 -67 729 -81 299 -13 754 33 1051 106 19 5 67
17 105 26 69 17 275 82 331 105 16 6 53 22 82 35 29 13 55 24 58 24 11 0 164
77 254 128 299 171 522 392 629 625 45 97 73 201 75 277 l1 55 -141 3 c-119 2
-144 5 -156 20 -8 9 -27 58 -42 107 -95 310 -525 1596 -676 2025 -34 96 -66
186 -70 200 -4 14 -34 97 -65 185 -31 88 -60 171 -65 185 -4 14 -54 153 -110
310 -56 157 -121 339 -145 405 -24 66 -70 194 -103 285 -33 91 -92 253 -130
360 -39 107 -95 260 -125 340 -30 80 -101 267 -156 415 -105 279 -112 296
-154 405 -113 288 -237 624 -237 640 0 36 26 36 345 11 61 -5 155 -17 210 -26
55 -9 116 -18 135 -21 41 -5 179 -32 230 -44 19 -4 69 -16 110 -25 77 -18 85
-20 205 -56 39 -12 84 -25 100 -29 17 -4 82 -27 145 -50 63 -23 126 -45 140
-50 61 -18 377 -168 539 -255 47 -25 89 -49 95 -54 6 -5 38 -23 71 -41 33 -18
81 -48 106 -66 26 -19 49 -34 53 -34 6 0 258 -179 266 -190 3 -3 23 -19 45
-35 163 -120 473 -413 637 -602 159 -185 390 -498 464 -632 11 -18 24 -41 29
-50 246 -398 460 -952 569 -1471 22 -102 54 -459 65 -715 40 -929 -193 -1832
-679 -2630 -382 -628 -906 -1146 -1585 -1570 -60 -38 -139 -87 -175 -110 -77
-50 -374 -195 -398 -195 -5 0 -32 -11 -60 -25 -29 -14 -58 -25 -65 -25 -7 0
-17 -4 -22 -8 -6 -4 -37 -16 -70 -27 -33 -10 -64 -22 -70 -25 -5 -4 -37 -15
-70 -25 -33 -10 -87 -27 -120 -38 -33 -11 -76 -23 -95 -28 -19 -4 -62 -15 -95
-24 -33 -9 -80 -21 -105 -25 -25 -5 -79 -16 -120 -25 -41 -8 -102 -20 -135
-25 -33 -5 -107 -16 -165 -25 -189 -28 -520 -39 -827 -26 -296 12 -507 35
-688 76 -38 9 -83 18 -100 21 -54 9 -160 35 -180 43 -11 5 -54 17 -95 26 -41
10 -82 22 -90 25 -8 4 -40 15 -70 25 -30 9 -64 20 -75 24 -11 5 -38 14 -60 21
-22 7 -53 18 -70 25 -16 7 -46 18 -65 25 -46 17 -94 37 -155 65 -27 13 -71 31
-97 41 -27 11 -48 22 -48 27 0 4 -7 7 -15 7 -9 0 -33 11 -55 25 -22 14 -46 25
-53 25 -7 0 -17 4 -22 9 -6 5 -37 23 -70 41 -33 18 -80 44 -105 58 -120 67
-478 303 -500 331 -3 3 -23 19 -45 36 -177 130 -393 340 -1992 1942 -942 943
-1713 1719 -1713 1725 0 6 -64 76 -142 155 l-143 144 -7 307 c-8 368 -25 1102
-38 1672 -5 228 -14 615 -20 860 -21 922 -31 1337 -40 1725 -5 220 -12 536
-16 703 l-7 302 -432 0 c-386 0 -434 -2 -439 -16 -3 -9 -6 -77 -6 -152 0 -75
-4 -276 -10 -447 -5 -170 -15 -553 -22 -850 -6 -297 -15 -691 -19 -875 -4
-184 -12 -587 -17 -895 -6 -308 -13 -600 -16 -650 -3 -49 -9 -193 -12 -320 -4
-126 -8 -233 -11 -237 -2 -5 -9 -8 -16 -8 -6 0 -684 672 -1507 1494 -822 821
-1537 1533 -1589 1582 -52 49 -102 96 -110 104 -24 22 -201 171 -246 205 -21
17 -61 48 -89 70 -28 23 -78 61 -111 85 -33 24 -62 46 -65 49 -3 3 -13 11 -22
16 -23 14 -261 172 -273 182 -5 4 -27 17 -47 28 -21 11 -38 23 -38 27 0 5 -4
8 -10 8 -5 0 -40 19 -77 42 -107 65 -431 234 -553 287 -30 13 -77 35 -104 48
-28 12 -53 23 -58 23 -4 0 -31 11 -60 24 -29 13 -75 32 -103 42 -27 9 -54 21
-59 26 -6 4 -18 8 -28 8 -9 0 -34 7 -55 16 -48 21 -64 27 -133 48 -30 10 -64
21 -75 26 -11 5 -31 11 -45 14 -14 3 -47 12 -75 20 -27 8 -77 22 -110 31 -33
10 -76 22 -95 27 -19 5 -57 13 -85 18 -121 19 -277 41 -360 50 -49 6 -97 12
-105 15 -8 2 -127 11 -265 20 -265 16 -506 17 -670 4z m-4 -2370 c62 -21 94
-53 123 -126 15 -37 32 -77 37 -88 9 -23 148 -376 233 -595 32 -80 61 -154 66
-165 5 -11 71 -173 145 -360 117 -293 226 -560 255 -630 5 -11 124 -299 266
-640 141 -341 269 -647 284 -680 15 -33 51 -116 80 -185 28 -69 60 -143 70
-165 10 -22 30 -68 44 -103 15 -34 40 -92 56 -127 16 -35 41 -93 56 -127 14
-35 34 -81 44 -103 10 -22 43 -96 73 -165 52 -119 63 -145 127 -285 15 -33 37
-82 50 -110 12 -27 40 -88 61 -133 45 -97 48 -119 17 -127 -13 -3 -981 -4
-2153 -3 l-2130 3 -3 25 c-2 15 21 76 56 150 69 143 122 260 122 265 0 2 15
36 34 77 18 40 57 127 86 193 28 66 58 134 65 150 120 264 702 1639 793 1870
11 28 52 129 91 225 150 363 230 561 453 1120 126 316 248 622 271 679 44 108
67 136 132 159 40 14 56 14 96 1z m15235 0 c69 -18 99 -61 178 -261 37 -95
102 -258 143 -363 110 -279 132 -335 153 -385 18 -44 84 -208 162 -405 22 -55
44 -109 48 -120 5 -11 54 -132 110 -270 112 -273 500 -1212 532 -1285 11 -25
26 -61 35 -80 8 -19 76 -177 150 -350 75 -173 150 -349 169 -391 18 -42 44
-103 59 -135 15 -33 35 -79 45 -104 10 -25 32 -76 50 -115 17 -38 38 -83 45
-100 45 -102 187 -419 210 -468 22 -46 25 -60 15 -72 -11 -13 -265 -15 -2152
-15 -1965 0 -2139 1 -2145 16 -7 18 6 59 48 149 75 164 187 413 236 525 30 69
60 139 68 155 7 17 39 89 70 160 31 72 60 139 65 150 11 23 116 270 194 455
29 69 64 150 78 180 46 100 443 1062 648 1570 32 80 88 217 123 305 59 144
168 419 391 986 83 211 108 248 176 267 47 14 45 14 96 1z"/>
</g>
</svg>
