<?xml version="1.0" encoding="UTF-8"?>
<!DOCTYPE svg PUBLIC "-//W3C//DTD SVG 1.1//EN" "http://www.w3.org/Graphics/SVG/1.1/DTD/svg11.dtd">
<svg xmlns="http://www.w3.org/2000/svg" version="1.1" width="4728px" height="3799px" style="shape-rendering:geometricPrecision; text-rendering:geometricPrecision; image-rendering:optimizeQuality; fill-rule:evenodd; clip-rule:evenodd" xmlns:xlink="http://www.w3.org/1999/xlink">
<g><path style="opacity:0.976" fill="#1d0131" d="M 2173.5,659.5 C 2301.83,659.333 2430.17,659.5 2558.5,660C 2561.1,660.883 2563.27,662.383 2565,664.5C 2608.1,738.596 2650.77,812.929 2693,887.5C 2957.02,1344.18 3221.02,1800.84 3485,2257.5C 3486.01,2263.06 3485.34,2268.4 3483,2273.5C 3420.27,2381.81 3357.43,2489.98 3294.5,2598C 3292.61,2598.97 3290.61,2599.64 3288.5,2600C 2673.83,2600.67 2059.17,2600.67 1444.5,2600C 1441.54,2599.77 1439.04,2598.6 1437,2596.5C 1373.47,2487.44 1310.47,2378.1 1248,2268.5C 1247.33,2264.83 1247.33,2261.17 1248,2257.5C 1514.39,1795.8 1780.73,1334.13 2047,872.5C 2076.4,823.377 2105.07,773.711 2133,723.5C 2134,722.5 2135,721.5 2136,720.5C 2145.56,701.703 2155.9,683.37 2167,665.5C 2168.49,662.686 2170.66,660.686 2173.5,659.5 Z M 2365.5,1672.5 C 2367.87,1674.84 2370.03,1677.51 2372,1680.5C 2418.72,1762.12 2465.56,1843.62 2512.5,1925C 2414.83,1925.67 2317.17,1925.67 2219.5,1925C 2268.57,1841.02 2317.24,1756.86 2365.5,1672.5 Z"/></g>
<g><path style="opacity:1" fill="#322f60" d="M 2546.5,688.5 C 2430.5,687.835 2314.83,688.502 2199.5,690.5C 2198.6,689.791 2198.26,688.791 2198.5,687.5C 2314.67,687.167 2430.67,687.5 2546.5,688.5 Z"/></g>
<g><path style="opacity:1" fill="#5988bd" d="M 2546.5,688.5 C 2546.5,688.833 2546.5,689.167 2546.5,689.5C 2430.83,688.835 2315.5,689.502 2200.5,691.5C 2199.83,691.5 2199.5,691.167 2199.5,690.5C 2314.83,688.502 2430.5,687.835 2546.5,688.5 Z"/></g>
<g><path style="opacity:1" fill="#64a0d6" d="M 2546.5,689.5 C 2559.14,710.33 2571.64,731.33 2584,752.5C 2873.16,1254.82 3162.33,1757.16 3451.5,2259.5C 2977.67,2260.67 2503.67,2260.83 2029.5,2260C 2030.25,2259.33 2030.59,2258.5 2030.5,2257.5C 2086.71,2158.61 2143.38,2059.94 2200.5,1961.5C 2438.5,1960.67 2676.5,1960.17 2914.5,1960C 2923.19,1954.57 2924.69,1947.41 2919,1938.5C 2678.96,1523.07 2439.46,1107.41 2200.5,691.5C 2315.5,689.502 2430.83,688.835 2546.5,689.5 Z"/></g>
<g><path style="opacity:1" fill="#95bee5" d="M 2887.5,1933.5 C 2772,1934.5 2656.33,1934.83 2540.5,1934.5C 2422.6,1729.03 2304.43,1523.7 2186,1318.5C 2184.19,1317.02 2182.35,1315.69 2180.5,1314.5C 2177.7,1313.36 2174.7,1313.2 2171.5,1314C 2170.94,1314.38 2170.61,1314.88 2170.5,1315.5C 2169.5,1315.41 2168.67,1315.75 2168,1316.5C 1926.79,1735.23 1685.29,2153.9 1443.5,2572.5C 1385.4,2472.63 1327.57,2372.63 1270,2272.5C 1269.33,2271.5 1269.33,2270.5 1270,2269.5C 1572.1,1746.26 1873.93,1222.92 2175.5,699.5C 2191.57,725.966 2207.4,752.633 2223,779.5C 2444.76,1164.03 2666.26,1548.69 2887.5,1933.5 Z M 2365.5,1672.5 C 2317.24,1756.86 2268.57,1841.02 2219.5,1925C 2317.17,1925.67 2414.83,1925.67 2512.5,1925C 2465.56,1843.62 2418.72,1762.12 2372,1680.5C 2370.03,1677.51 2367.87,1674.84 2365.5,1672.5 Z"/></g>
<g><path style="opacity:1" fill="#555985" d="M 2180.5,1314.5 C 2177.1,1314.34 2173.76,1314.68 2170.5,1315.5C 2170.61,1314.88 2170.94,1314.38 2171.5,1314C 2174.7,1313.2 2177.7,1313.36 2180.5,1314.5 Z"/></g>
<g><path style="opacity:1" fill="#377fc0" d="M 2005.5,2281.5 C 2005.5,2281.83 2005.5,2282.17 2005.5,2282.5C 2487.17,2283.17 2968.83,2283.83 3450.5,2284.5C 3393.5,2383.83 3336.5,2483.17 3279.5,2582.5C 2675.83,2582.67 2072.17,2582.5 1468.5,2582C 1469.25,2581.33 1469.59,2580.5 1469.5,2579.5C 1705.43,2169.81 1941.76,1760.31 2178.5,1351C 2178.83,1350.83 2179.17,1350.67 2179.5,1350.5C 2237.2,1450.52 2294.87,1550.52 2352.5,1650.5C 2234.85,1855.12 2116.69,2059.46 1998,2263.5C 1994.76,2272 1997.26,2278 2005.5,2281.5 Z"/></g>
<g><path style="opacity:1" fill="#636f9a" d="M 2887.5,1933.5 C 2888.04,1933.56 2888.38,1933.89 2888.5,1934.5C 2772.33,1935.83 2656.33,1935.83 2540.5,1934.5C 2656.33,1934.83 2772,1934.5 2887.5,1933.5 Z"/></g>
<g><path style="opacity:1" fill="#5e93c8" d="M 2030.5,2257.5 C 2030.59,2258.5 2030.25,2259.33 2029.5,2260C 2503.67,2260.83 2977.67,2260.67 3451.5,2259.5C 3452.34,2259.84 3452.67,2260.51 3452.5,2261.5C 2977.67,2261.83 2503,2261.5 2028.5,2260.5C 2028.43,2258.97 2029.09,2257.97 2030.5,2257.5 Z"/></g>
<g><path style="opacity:1" fill="#3f4d80" d="M 2028.5,2260.5 C 2503,2261.5 2977.67,2261.83 3452.5,2261.5C 3215.17,2262.17 2977.67,2262.5 2740,2262.5C 2502.5,2262.17 2265,2261.83 2027.5,2261.5C 2027.62,2260.89 2027.96,2260.56 2028.5,2260.5 Z"/></g>
<g><path style="opacity:1" fill="#2b447d" d="M 2005.5,2282.5 C 2005.5,2282.17 2005.5,2281.83 2005.5,2281.5C 2487.83,2281.5 2970.17,2281.5 3452.5,2281.5C 3452.74,2282.79 3452.4,2283.79 3451.5,2284.5C 2969.83,2282.5 2487.83,2281.83 2005.5,2282.5 Z"/></g>
<g><path style="opacity:1" fill="#3575b5" d="M 2005.5,2282.5 C 2487.83,2281.83 2969.83,2282.5 3451.5,2284.5C 3451.17,2284.5 3450.83,2284.5 3450.5,2284.5C 2968.83,2283.83 2487.17,2283.17 2005.5,2282.5 Z"/></g>
<g><path style="opacity:1" fill="#2d4d88" d="M 1469.5,2579.5 C 1469.59,2580.5 1469.25,2581.33 1468.5,2582C 2072.17,2582.5 2675.83,2582.67 3279.5,2582.5C 2675.33,2583.83 2071,2583.83 1466.5,2582.5C 1467.19,2581.15 1468.19,2580.15 1469.5,2579.5 Z"/></g>
</svg>
